<?xml version="1.0" standalone="no"?>
<!DOCTYPE svg PUBLIC "-//W3C//DTD SVG 20010904//EN"
 "http://www.w3.org/TR/2001/REC-SVG-20010904/DTD/svg10.dtd">
<svg version="1.0" xmlns="http://www.w3.org/2000/svg"
 width="700.000000pt" height="700.000000pt" viewBox="0 0 700.000000 700.000000"
 preserveAspectRatio="xMidYMid meet">
<metadata>
Created by potrace 1.14, written by Peter Selinger 2001-2017
</metadata>
<g transform="translate(0.000000,700.000000) scale(0.100000,-0.100000)"
fill="#000000" stroke="none">
<path d="M6290 6974 c-199 -37 -397 -125 -650 -291 -107 -70 -319 -220 -330
-233 -3 -3 -21 -17 -40 -30 -19 -14 -42 -30 -50 -37 -58 -47 -307 -240 -408
-317 l-63 -48 -127 40 c-193 62 -385 110 -512 127 -25 3 -52 7 -60 9 -218 41
-636 51 -913 20 -220 -24 -491 -83 -699 -151 l-117 -39 -33 25 c-18 14 -35 28
-38 31 -3 3 -25 21 -50 40 -25 19 -47 37 -50 40 -3 3 -52 44 -110 90 -58 47
-114 93 -125 103 -11 10 -96 76 -190 146 -345 261 -567 387 -784 447 -67 19
-104 23 -190 21 -99 -2 -111 -4 -176 -37 -188 -93 -269 -279 -267 -608 0 -67
3 -148 7 -180 19 -168 38 -298 65 -430 16 -81 31 -158 33 -172 3 -14 29 -128
58 -255 101 -444 121 -542 134 -654 1 -14 -21 -69 -52 -130 -105 -206 -183
-405 -238 -606 -26 -97 -63 -274 -71 -339 -3 -23 -7 -50 -9 -61 -19 -94 -26
-452 -11 -635 4 -58 9 -107 11 -110 2 -3 6 -27 9 -55 13 -97 57 -299 92 -414
121 -401 332 -783 614 -1112 73 -86 272 -283 340 -339 30 -25 57 -47 60 -50 3
-3 25 -21 50 -40 25 -19 47 -37 50 -41 22 -28 492 -319 515 -319 1 0 46 -20
98 -45 214 -100 531 -205 757 -249 117 -23 190 -34 265 -42 28 -3 61 -7 75
-10 128 -21 552 -21 735 1 96 11 140 17 164 21 516 86 976 263 1371 527 77 51
261 186 270 197 3 4 37 34 75 67 191 164 376 370 527 588 267 384 445 839 504
1290 3 22 7 51 10 65 21 124 21 543 0 670 -3 14 -7 45 -10 70 -29 227 -121
560 -201 737 -66 143 -68 154 -49 253 2 14 7 39 10 55 3 17 14 75 25 130 10
55 21 111 24 125 3 14 9 48 15 75 13 62 14 69 46 235 14 74 28 146 30 160 3
14 7 36 9 50 3 14 8 39 10 55 3 17 10 53 15 80 5 28 12 70 15 95 3 25 8 56 10
70 15 87 37 273 51 430 10 118 4 397 -11 465 -1 6 -5 28 -9 50 -31 165 -130
304 -251 353 -56 22 -197 37 -255 26z"/>
</g>
</svg>
